<svg fill="#000000" xmlns="http://www.w3.org/2000/svg"  viewBox="0 0 50 50" width="100px" height="100px"><path d="M 14 4 C 8.4886661 4 4 8.4886661 4 14 L 4 36 C 4 41.511334 8.4886661 46 14 46 L 36 46 C 41.511334 46 46 41.511334 46 36 L 46 14 C 46 8.4886661 41.511334 4 36 4 L 14 4 z M 14 6 L 36 6 C 40.430666 6 44 9.5693339 44 14 L 44 36 C 44 40.430666 40.430666 44 36 44 L 14 44 C 9.5693339 44 6 40.430666 6 36 L 6 14 C 6 9.5693339 9.5693339 6 14 6 z M 27.955078 9.4296875 A 1.0001 1.0001 0 0 0 27.644531 11.386719 C 29.317604 11.917139 30.672459 12.871971 31.777344 14.367188 A 1.0001 1.0001 0 1 0 33.384766 13.177734 C 32.04965 11.370951 30.298927 10.130048 28.25 9.4804688 A 1.0001 1.0001 0 0 0 27.955078 9.4296875 z M 19.472656 12.166016 C 17.739688 12.187297 16.090281 13.325891 15.707031 15.306641 C 15.618031 15.769641 15.394484 16.096094 15.021484 16.371094 C 13.892484 17.189094 13.301031 18.311469 13.332031 19.730469 C 13.332031 20.144469 13.263516 20.519516 12.978516 20.853516 C 12.094516 21.937516 12.034125 23.188281 12.328125 24.488281 C 12.466125 25.129281 12.721625 25.741266 13.015625 26.322266 C 13.937625 28.745266 15.328688 30.96975 16.929688 32.96875 C 18.511688 34.92975 20.610813 36.341516 23.007812 37.228516 C 28.136812 39.139516 34.227094 36.409031 36.496094 31.207031 C 37.762094 28.311031 38.026891 25.267531 37.712891 22.144531 C 37.603891 21.120531 37.427688 20.104672 37.054688 19.138672 C 36.012687 16.418672 33.134062 15.689031 30.914062 17.582031 C 30.757062 17.720031 30.63 17.9175 30.375 17.9375 C 30.051 17.8395 29.952625 17.513578 29.765625 17.267578 C 29.214625 16.518578 28.695953 15.740953 28.126953 15.001953 C 27.488953 14.144953 26.692766 13.446828 25.759766 12.923828 C 24.708766 12.342828 23.607266 12.115891 22.447266 12.587891 C 22.005266 12.764891 21.622453 12.725344 21.189453 12.527344 C 20.636703 12.276094 20.050313 12.158922 19.472656 12.166016 z M 19.5 14.484375 C 19.833 14.493 20.160094 14.622953 20.433594 14.876953 C 20.662594 15.085953 20.841484 15.363328 21.021484 15.611328 C 22.483484 17.709328 23.924719 19.808484 25.386719 21.896484 C 25.575719 22.164484 25.694875 22.543437 26.171875 22.523438 C 26.400875 22.156437 26.102359 21.885188 25.943359 21.617188 C 25.098359 20.146187 24.233906 18.684891 23.378906 17.212891 C 23.219906 16.944891 23.059688 16.666906 22.929688 16.378906 C 22.641687 15.712906 22.690359 15.185484 23.068359 14.896484 C 23.585359 14.518484 24.083313 14.697609 24.570312 14.974609 C 25.038312 15.242609 25.424969 15.612766 25.792969 16.009766 C 26.508969 16.765766 27.106828 17.619375 27.673828 18.484375 C 28.438828 19.638375 29.165641 20.821375 29.931641 21.984375 C 30.179641 22.362375 30.407609 22.809062 30.974609 22.789062 C 31.392609 22.591062 31.412719 22.182219 31.511719 21.824219 C 31.680719 21.187219 31.831922 20.541844 32.169922 19.964844 C 32.527922 19.357844 32.984 18.910703 33.75 18.970703 C 34.516 19.030703 34.794125 19.628141 34.953125 20.244141 C 35.394125 21.866141 35.571656 23.525031 35.472656 25.207031 C 35.373656 26.878031 35.035219 28.498078 34.449219 30.080078 C 32.828219 34.415078 26.503875 37.709875 21.421875 33.671875 C 20.377875 32.836875 19.424187 31.929953 18.617188 30.876953 C 17.245188 29.106953 16.090172 27.188453 15.076172 25.189453 C 14.808172 24.662453 14.608531 24.084047 14.519531 23.498047 C 14.449531 23.001047 14.539094 22.525094 14.996094 22.246094 C 15.464094 21.958094 15.902781 22.146359 16.300781 22.443359 C 16.608781 22.682359 16.847172 22.971297 17.076172 23.279297 C 18.041172 24.562297 18.99475 25.844188 19.96875 27.117188 C 20.17775 27.396187 20.355047 27.812437 20.873047 27.523438 C 20.853047 27.035438 20.575719 26.798531 20.386719 26.519531 C 19.063719 24.670531 17.740969 22.830234 16.417969 20.990234 C 16.238969 20.731234 16.050391 20.482078 15.900391 20.205078 C 15.533391 19.508078 15.691578 18.763703 16.267578 18.345703 C 16.843578 17.927703 17.619734 17.966609 18.177734 18.474609 C 18.375734 18.663609 18.544844 18.903813 18.714844 19.132812 C 19.877844 20.693812 21.032312 22.273937 22.195312 23.835938 C 22.384313 24.094938 22.523 24.472813 23 24.382812 C 23.159 23.975812 22.860406 23.716266 22.691406 23.447266 C 21.348406 21.429266 20.007062 19.410578 18.664062 17.392578 C 18.485063 17.133578 18.297969 16.874703 18.167969 16.595703 C 17.839969 15.929703 17.989156 15.244406 18.535156 14.816406 C 18.828656 14.587906 19.167 14.47575 19.5 14.484375 z M 27.847656 23.34375 A 0.85008502 0.85008502 0 0 0 27.314453 23.509766 C 25.468328 24.837661 24.295722 26.679592 23.597656 28.769531 A 0.85008502 0.85008502 0 1 0 25.208984 29.308594 C 25.822919 27.470533 26.782766 25.98673 28.306641 24.890625 A 0.85008502 0.85008502 0 0 0 27.847656 23.34375 z M 30.185547 24.564453 A 0.85008502 0.85008502 0 0 0 29.345703 25.425781 C 29.341403 27.422796 29.80101 29.126351 30.617188 30.552734 A 0.85008502 0.85008502 0 1 0 32.091797 29.707031 C 31.425974 28.543415 31.043151 27.168671 31.046875 25.429688 A 0.85008502 0.85008502 0 0 0 30.185547 24.564453 z M 12.699219 31.638672 A 1.0001 1.0001 0 0 0 11.746094 33.003906 C 13.095323 36.573877 15.734432 39.062268 19.248047 40.525391 A 1.0001 1.0001 0 1 0 20.017578 38.679688 C 16.903193 37.38281 14.775957 35.362904 13.617188 32.296875 A 1.0001 1.0001 0 0 0 12.699219 31.638672 z"/></svg>